<?xml version="1.0" encoding="utf-8"?>
<!-- Generator: Adobe Illustrator 24.2.3, SVG Export Plug-In . SVG Version: 6.00 Build 0)  -->
<svg version="1.1" id="Layer_1" xmlns="http://www.w3.org/2000/svg" xmlns:xlink="http://www.w3.org/1999/xlink" x="0px" y="0px"
	 viewBox="0 0 518 518" style="enable-background:new 0 0 518 518;" xml:space="preserve">
<style type="text/css">
	.st0{fill:#FFFFFF;}
</style>
<g>
	<g>
		<path class="st0" d="M510.6,136C510.6,136,510.6,136,510.6,136L510.6,136l-33.5-4.8c-4.7-0.7-8-5-7.3-9.7c0.3-2.3,1.5-4.3,3.4-5.7
			l27-20.3c3.8-2.9,4.6-8.2,1.7-12l-31-41.3c-2.9-3.8-8.2-4.6-12-1.7l-27,20.3c-3.8,2.9-9.2,2.1-12.1-1.7c-1.4-1.8-2-4.2-1.7-6.4
			l4.8-33.5c0.7-4.7-2.6-9.1-7.3-9.7c0,0,0,0,0,0l-51.1-7.3c-4.7-0.7-9.1,2.6-9.7,7.3c0,0,0,0,0,0L350.1,43c-0.7,4.7-5,8-9.7,7.3
			c-2.3-0.3-4.3-1.5-5.7-3.4l-20.3-27c-2.9-3.8-8.2-4.6-12-1.7l-25.8,19.4c-11.7-1.2-23.5-1.2-35.2,0
			c-76.6,8.8-136.6,69.8-144.1,146.5c-0.2,2.4-0.3,4.9-0.4,7.3h-2.6c-4.1,0-7.6,2.9-8.4,6.9l-5.9,28.3l-23.8-16.4
			c-3.4-2.4-8-1.9-11,1l-25.8,25.8c-2.9,2.9-3.4,7.5-1,11l16.3,23.8l-28.3,5.9c-4,0.9-6.8,4.4-6.8,8.4v34.4c0,4.1,2.8,7.6,6.8,8.4
			l28.3,5.9l-16.3,23.8c-2.4,3.4-1.9,8,1,11l25.8,25.8c2.9,2.9,7.5,3.4,11,1l23.8-16.4l5.9,28.3c0.8,4,4.3,6.9,8.4,6.9h34.4
			c4.1,0,7.6-2.8,8.4-6.8l5.9-28.3l23.8,16.3c3.4,2.4,8,1.9,11-1l13.4-13.4v24.5c0,12.2,6.6,23.5,17.2,29.6v47.8
			c0,19,15.4,34.4,34.4,34.4h34.4c19,0,34.4-15.4,34.4-34.4V436c10.6-6.1,17.2-17.4,17.2-29.6v-34c0.2-14.3,7.7-27.5,19.9-35.1
			c7.1-4.6,13.9-9.8,20.2-15.5l-11.5-12.8c-5.7,5.1-11.7,9.7-18.1,13.9c-17.1,10.7-27.5,29.4-27.7,49.5v34c0,9.5-7.7,17.2-17.2,17.2
			h-68.8c-9.5,0-17.2-7.7-17.2-17.2v-34.8c-0.2-19.8-10.5-38.1-27.3-48.5c-68.2-42.8-88.7-132.8-45.9-201
			c26.6-42.3,73-68,122.9-68.2c-0.1,0.3-0.2,0.6-0.3,0.9c-0.3,2.3,0.3,4.6,1.6,6.4l20.3,27c2.1,2.8,2.3,6.6,0.5,9.5
			c-1.8,3-5.2,4.6-8.6,4.1l-33.5-4.8c-4.7-0.7-9.1,2.6-9.7,7.3c0,0,0,0,0,0l-7.3,51.1c-0.7,4.7,2.6,9.1,7.3,9.7c0,0,0,0,0,0
			l33.5,4.8c4.7,0.7,8,5,7.3,9.7c-0.3,2.3-1.5,4.3-3.4,5.7l-27,20.3c-3.8,2.9-4.6,8.2-1.7,12l31,41.3c2.9,3.8,8.2,4.6,12,1.7
			l27-20.3c3.8-2.8,9.2-2.1,12,1.7c1.4,1.8,1.9,4.1,1.6,6.4L316,282c-0.7,4.7,2.6,9.1,7.3,9.7c0,0,0,0,0,0l51.1,7.3
			c0.4,0.1,0.8,0.1,1.2,0.1c4.3,0,7.9-3.1,8.5-7.4l4.8-33.5c0.7-4.7,5-8,9.7-7.3c2.3,0.3,4.3,1.5,5.7,3.4l20.3,27
			c2.9,3.8,8.2,4.6,12,1.7l41.3-31c3.8-2.9,4.6-8.2,1.7-12l-20.3-27c-2.1-2.8-2.3-6.6-0.5-9.5c1.7-3,5.2-4.7,8.6-4.1l33.5,4.8
			c4.7,0.7,9.1-2.6,9.7-7.3c0,0,0,0,0,0l7.3-51.1C518.6,141.1,515.3,136.7,510.6,136z M225.6,440.8h68.8V458h-68.8V440.8z
			 M225.6,475.2h68.8v8.6c0,9.5-7.7,17.2-17.2,17.2h-34.4c-9.5,0-17.2-7.7-17.2-17.2V475.2z M157.1,326.9c4.7,3.8,9.6,7.4,14.7,10.7
			c8.1,5.1,14.2,12.9,17.3,22L170.7,378l-17.9-12.3c-7.8-5.4-18.5-3.4-23.9,4.4c-1.3,1.9-2.2,4-2.7,6.2l-4.5,21.5h-20.4l-4.5-21.4
			c-2-9.3-11.1-15.2-20.4-13.3c-2.2,0.5-4.3,1.4-6.2,2.7L52.3,378l-15.7-15.6l12.3-17.9c5.4-7.8,3.4-18.5-4.4-23.9
			c-1.9-1.3-4-2.2-6.2-2.7l-21.4-4.5V293l21.4-4.5c9.3-2,15.2-11.1,13.3-20.4c-0.5-2.2-1.4-4.3-2.6-6.2L36.6,244l15.7-15.6
			l17.9,12.3c7.8,5.4,18.5,3.4,23.9-4.4c1.3-1.9,2.2-4,2.7-6.2l1.5-7.2c1.4,9.9,3.7,19.7,6.8,29.2c-28.3,3.4-48.5,29.1-45.1,57.4
			c3.4,28.3,29.1,48.5,57.4,45.1C134.3,352.5,149.2,342.1,157.1,326.9z M143.7,314.7c-6.4,17.9-26.1,27.1-44,20.7
			c-17.9-6.4-27.1-26.1-20.7-44c4.9-13.7,17.9-22.8,32.4-22.7c0.1,0,0.2,0,0.3,0C119.7,285.8,130.5,301.4,143.7,314.7z M494.8,185.9
			l-24.9-3.6c-14.1-2-27.2,7.8-29.2,21.9c-1,6.8,0.8,13.7,4.9,19.1l15.1,20.2l-27.5,20.6L418,244c-8.5-11.4-24.7-13.7-36.1-5.2
			c-5.5,4.1-9.1,10.2-10.1,17l-3.5,25l-34.1-4.9l3.6-24.9c2-14.1-7.8-27.2-21.9-29.2c-6.8-1-13.7,0.8-19.1,4.9l-20.2,15.1L256,214.3
			l20.1-15.1c11.4-8.5,13.7-24.7,5.2-36.1c-4.1-5.5-10.2-9.1-17-10.1l-24.9-3.6l4.9-34.1l24.9,3.6c14.1,2,27.2-7.8,29.2-21.9
			c1-6.8-0.8-13.7-4.9-19.1l-15.2-20.2l27.5-20.6L321,57.2c8.5,11.4,24.7,13.7,36.1,5.2c5.5-4.1,9.1-10.2,10.1-17l3.6-24.9l34.1,4.9
			l-3.6,24.9c-2,14.1,7.8,27.2,21.9,29.2c6.8,1,13.7-0.8,19.1-4.9l20.2-15.1L483,87l-20.2,15.1c-11.4,8.5-13.7,24.7-5.2,36.1
			c4.1,5.5,10.2,9.1,17,10.1l24.9,3.6L494.8,185.9z"/>
	</g>
</g>
<g>
	<g>
		<path class="st0" d="M369.5,81.8c-38,0-68.8,30.8-68.8,68.8s30.8,68.8,68.8,68.8s68.8-30.8,68.8-68.8
			C438.3,112.6,407.5,81.9,369.5,81.8z M369.5,202.2c-28.5,0-51.6-23.1-51.6-51.6S341,99,369.5,99c28.5,0,51.6,23.1,51.6,51.6
			C421.1,179.1,398,202.2,369.5,202.2z"/>
	</g>
</g>
<g>
	<g>
		<rect x="251.4" y="380.6" class="st0" width="17.2" height="25.8"/>
	</g>
</g>
<g>
	<g>
		<path class="st0" d="M222.3,296.1c-53.1-20.7-79.3-80.6-58.6-133.7c8-20.6,22.5-38,41.2-49.8l-9.2-14.6
			c-56.3,35.4-73.1,109.8-37.7,166.1c13.7,21.8,34.1,38.6,58.1,48c21.2,8.1,35.3,28.5,35.3,51.3h17.2
			C268.6,333.5,250.2,306.8,222.3,296.1z"/>
	</g>
</g>
<g>
	<g>
		<rect x="423.4" y="320.4" class="st0" width="60.2" height="17.2"/>
	</g>
</g>
<g>
	<g>
		
			<rect x="432" y="359.9" transform="matrix(0.6401 -0.7683 0.7683 0.6401 -143.7379 480.1045)" class="st0" width="17.2" height="67.2"/>
	</g>
</g>
<g>
	<g>
		<rect x="371.8" y="389.2" class="st0" width="17.2" height="60.2"/>
	</g>
</g>
<g>
	<g>
		
			<rect x="9.5" y="139.8" transform="matrix(0.9701 -0.2425 0.2425 0.9701 -34.6346 15.3234)" class="st0" width="70.9" height="17.2"/>
	</g>
</g>
<g>
	<g>
		
			<rect x="49.2" y="38.3" transform="matrix(0.5812 -0.8137 0.8137 0.5812 -37.0225 78.5682)" class="st0" width="17.2" height="74"/>
	</g>
</g>
<g>
	<g>
		<rect x="104.9" y="1" transform="matrix(0.9688 -0.2477 0.2477 0.9688 -5.5103 29.2654)" class="st0" width="17.2" height="71"/>
	</g>
</g>
</svg>
