<?xml version="1.0" encoding="utf-8"?>
<!-- Generator: Adobe Illustrator 24.2.3, SVG Export Plug-In . SVG Version: 6.00 Build 0)  -->
<svg version="1.1" id="Layer_1" xmlns="http://www.w3.org/2000/svg" xmlns:xlink="http://www.w3.org/1999/xlink" x="0px" y="0px"
	 viewBox="0 0 512 427.1" style="enable-background:new 0 0 512 427.1;" xml:space="preserve">
<style type="text/css">
	.st0{fill:#FFFFFF;}
</style>
<g>
	<path class="st0" d="M319.7,118.1c10.9,0,19.7-8.8,19.7-19.7s-8.8-19.7-19.7-19.7c-10.9,0-19.7,8.8-19.7,19.7c0,4.4,1.5,8.5,4,11.8
		l-32.4,45.3c-1.9-0.6-4-1-6.1-1c-5.2,0-9.9,2-13.4,5.3l-21.6-12.3c0.3-1.3,0.4-2.7,0.4-4.1c0-10.9-8.8-19.7-19.7-19.7
		s-19.7,8.8-19.7,19.7c0,1.4,0.2,2.8,0.4,4.1l-21.6,12.3c-3.5-3.3-8.2-5.3-13.4-5.3c-10.9,0-19.7,8.8-19.7,19.7s8.8,19.7,19.7,19.7
		s19.7-8.8,19.7-19.7c0-1.4-0.2-2.8-0.4-4.1l21.6-12.3c3.5,3.3,8.2,5.3,13.4,5.3s9.9-2,13.4-5.3l21.6,12.3c-0.3,1.3-0.4,2.7-0.4,4.1
		c0,10.9,8.8,19.7,19.7,19.7c10.9,0,19.7-8.8,19.7-19.7c0-4.4-1.5-8.5-4-11.8l32.4-45.3C315.4,117.7,317.5,118.1,319.7,118.1z
		 M319.7,90.5c4.3,0,7.9,3.5,7.9,7.9c0,4.3-3.5,7.9-7.9,7.9c-4.3,0-7.9-3.5-7.9-7.9C311.8,94,315.3,90.5,319.7,90.5z M156.8,182.1
		c-4.3,0-7.9-3.5-7.9-7.9c0-4.3,3.5-7.9,7.9-7.9s7.9,3.5,7.9,7.9C164.7,178.6,161.1,182.1,156.8,182.1z M211.1,151.3
		c-4.3,0-7.9-3.5-7.9-7.9c0-4.3,3.5-7.9,7.9-7.9c4.3,0,7.9,3.5,7.9,7.9C219,147.7,215.4,151.3,211.1,151.3z M265.4,182.1
		c-4.3,0-7.9-3.5-7.9-7.9c0-4.3,3.5-7.9,7.9-7.9c4.3,0,7.9,3.5,7.9,7.9C273.3,178.6,269.7,182.1,265.4,182.1z"/>
	<path class="st0" d="M392.3,310.4H351H125.5H78.8c-2.7,0-4.9-2.2-4.9-4.9v-244c0-2.7,2.2-4.9,4.9-4.9h27.9c3.3,0,5.9-2.6,5.9-5.9
		s-2.6-5.9-5.9-5.9H78.8c-9.2,0-16.7,7.5-16.7,16.7v244c0,9.2,7.5,16.7,16.7,16.7h40.8v13c0,7.4,6,13.4,13.4,13.4h59.2l-27.9,54.4
		c-1.5,2.9-0.3,6.5,2.6,8c0.9,0.4,1.8,0.7,2.7,0.7c2.1,0,4.2-1.2,5.3-3.2l30.6-59.8h65.4l30.6,59.8c1,2,3.1,3.2,5.3,3.2
		c0.9,0,1.8-0.2,2.7-0.7c2.9-1.5,4.1-5.1,2.6-8l-27.9-54.4h59.2c7.4,0,13.4-6,13.4-13.4v-13h35.5c3.3,0,5.9-2.6,5.9-5.9
		S395.6,310.4,392.3,310.4z M345,335.3c0,0.9-0.7,1.6-1.6,1.6H133c-0.9,0-1.6-0.7-1.6-1.6v-13H345V335.3z"/>
	<path class="st0" d="M130.3,56.6h81h53.8h132.5c2.7,0,4.9,2.2,4.9,4.9v56.2c0,3.3,2.6,5.9,5.9,5.9c3.3,0,5.9-2.6,5.9-5.9V61.5
		c0-9.2-7.5-16.7-16.7-16.7H271.1V33.2c0-8.2-6.7-14.8-14.8-14.8h-36c-8.2,0-14.8,6.7-14.8,14.8v11.6h-75.1c-3.3,0-5.9,2.6-5.9,5.9
		S127.1,56.6,130.3,56.6z M217.2,33.2c0-1.7,1.4-3,3-3h36c1.7,0,3,1.4,3,3v11.6h-42L217.2,33.2L217.2,33.2z"/>
	<path class="st0" d="M144.8,224.2c-3.3,0-5.9,2.6-5.9,5.9v52.3c0,3.3,2.6,5.9,5.9,5.9h24c3.3,0,5.9-2.6,5.9-5.9v-52.3
		c0-3.3-2.6-5.9-5.9-5.9H144.8z M162.9,276.4h-12.2V236h12.2V276.4z"/>
	<path class="st0" d="M199.1,193.9c-3.3,0-5.9,2.6-5.9,5.9v82.5c0,3.3,2.6,5.9,5.9,5.9h24c3.3,0,5.9-2.6,5.9-5.9v-82.5
		c0-3.3-2.6-5.9-5.9-5.9H199.1z M217.2,276.4H205v-70.7h12.2V276.4z"/>
	<path class="st0" d="M253.4,224.2c-3.3,0-5.9,2.6-5.9,5.9v52.3c0,3.3,2.6,5.9,5.9,5.9h24c3.3,0,5.9-2.6,5.9-5.9v-52.3
		c0-3.3-2.6-5.9-5.9-5.9H253.4z M271.5,276.4h-12.2V236h12.2V276.4z"/>
	<path class="st0" d="M307.7,259.1c-3.3,0-5.9,2.6-5.9,5.9v17.4c0,3.3,2.6,5.9,5.9,5.9h24c3.3,0,5.9-2.6,5.9-5.9
		c0-3.3-2.6-5.9-5.9-5.9h-18.1V265C313.6,261.7,310.9,259.1,307.7,259.1z"/>
	<path class="st0" d="M462.8,316l-33.9-58.8c8.6-9.2,14.9-20.4,18.2-32.8c5.3-19.9,2.6-40.8-7.7-58.7
		c-21.3-36.9-68.7-49.6-105.6-28.3c-36.9,21.3-49.6,68.7-28.3,105.6c10.3,17.9,27,30.7,46.9,36c6.7,1.8,13.4,2.7,20.1,2.7
		c5.9,0,11.7-0.7,17.4-2l33.9,58.8c4.2,7.2,11.7,11.2,19.5,11.2c3.8,0,7.7-1,11.2-3c6.9-4,11.2-11.5,11.2-19.5
		C465.8,323.3,464.8,319.4,462.8,316z M355.5,267.6c-16.9-4.5-31-15.4-39.8-30.5c-18.1-31.3-7.3-71.4,24-89.4
		c10.3-5.9,21.5-8.8,32.6-8.8c22.6,0,44.7,11.7,56.8,32.7c8.7,15.1,11.1,32.8,6.5,49.7c-4.5,16.9-15.4,31-30.5,39.8
		C390,269.8,372.4,272.1,355.5,267.6z M448.7,336.5c-5.1,2.9-11.6,1.2-14.6-3.9L401.5,276c3.3-1.3,6.5-2.9,9.6-4.7
		c3.1-1.8,6.1-3.8,8.9-6l32.6,56.5c0.9,1.6,1.4,3.5,1.4,5.3C454,331,452,334.6,448.7,336.5z"/>
	<path class="st0" d="M426.1,221c4.2-13.5,3.2-27.9-2.8-40.5c-1.4-3-4.9-4.2-7.9-2.8c-3,1.4-4.2,4.9-2.8,7.9c4.7,10,5.5,21.4,2.2,32
		c-3.3,10.7-10.5,19.6-20.2,25.2c-10.3,5.9-22.2,7.5-33.6,4.4c-11.4-3.1-21-10.4-26.9-20.7c-12.2-21.2-4.9-48.3,16.2-60.6
		c15.5-8.9,34.7-7.7,48.9,3c2.6,2,6.3,1.5,8.3-1.1c2-2.6,1.5-6.3-1.1-8.3c-18.1-13.7-42.4-15.2-62-3.9c-13,7.5-22.3,19.6-26.2,34.1
		c-3.9,14.5-1.9,29.6,5.6,42.6c7.5,13,19.6,22.3,34.1,26.2c4.8,1.3,9.7,1.9,14.6,1.9c9.7,0,19.3-2.6,28-7.5
		C412.8,245.9,421.9,234.6,426.1,221z"/>
</g>
</svg>
