<?xml version="1.0" encoding="utf-8"?>
<!-- Generator: Adobe Illustrator 24.2.3, SVG Export Plug-In . SVG Version: 6.00 Build 0)  -->
<svg version="1.1" id="Capa_1" xmlns="http://www.w3.org/2000/svg" xmlns:xlink="http://www.w3.org/1999/xlink" x="0px" y="0px"
	 viewBox="0 0 482.4 512" style="enable-background:new 0 0 482.4 512;" xml:space="preserve">
<style type="text/css">
	.st0{fill:#FFFFFF;}
</style>
<g>
	<g>
		<path class="st0" d="M447,455.6h-8.4c0.6-1.9,0.9-3.8,0.9-5.9v-13.6c0-11.5-9.4-20.9-20.9-20.9h-14.1l-12.9-150.7h20.1
			c9.7,0,17.6-7.9,17.6-17.6v-12.1c0-9.7-7.9-17.6-17.6-17.6h-0.2c1.1-2.7,1.7-5.6,1.7-8.7c0-13-10.6-23.7-23.7-23.7h-9.6
			c11.7-10.6,19.1-26,19.1-43c0-32-26-58-58-58s-58,26-58,58c0,17,7.4,32.4,19.1,43h-9.6c-13,0-23.7,10.6-23.7,23.7
			c0,3.1,0.6,6,1.7,8.7h-0.2c-9.7,0-17.6,7.9-17.6,17.6v12.1c0,9.7,7.9,17.6,17.6,17.6h20.1l-12.9,150.7h-14.1
			c-5.1,0-9.8,1.8-13.4,4.9c-3.6-3-8.3-4.9-13.4-4.9h-4.8l-20-60c-4.6-13.7-6.9-27.9-6.9-42.4V231c9.4-3.1,16.2-12,16.2-22.4
			c0-3.1-0.6-6-1.6-8.7h0.2c9.7,0,17.6-7.9,17.6-17.6v-12.1c0-9.7-7.9-17.6-17.6-17.6h-0.2c1.1-2.7,1.6-5.6,1.6-8.7
			c0-10.4-6.8-19.3-16.2-22.4l13.8-27.7c1.5-3.1,2.3-6.5,2.3-9.9c0-12.2-10-22.2-22.2-22.2h-19.3c5.1-6.6,8.2-14.8,8.2-23.8
			c0-21.4-17.4-38.8-38.8-38.8c-21.4,0-38.8,17.4-38.8,38.8c0,9,3.1,17.2,8.2,23.8H99.1c-12.2,0-22.2,10-22.2,22.2
			c0,3.4,0.8,6.9,2.3,9.9l13.8,27.7c-9.4,3.1-16.2,12-16.2,22.4c0,3.1,0.6,6,1.7,8.7h-0.2c-9.7,0-17.6,7.9-17.6,17.6v12.1
			c0,9.7,7.9,17.6,17.6,17.6h0.2c-1.1,2.7-1.6,5.6-1.6,8.7c0,10.4,6.8,19.3,16.2,22.4v81.9c0,14.4-2.3,28.7-6.9,42.4l-20,60h-4.8
			c-11.5,0-20.9,9.4-20.9,20.9v13.6c0,2,0.3,4,0.9,5.9H33c-12.6,0-22.8,10.2-22.8,22.8v9.9c0,12.6,10.2,22.8,22.8,22.8H447
			c12.6,0,22.8-10.2,22.8-22.8v-9.9C469.7,465.8,459.5,455.6,447,455.6L447,455.6z M298,141.9c0-23.7,19.3-43,43-43s43,19.3,43,43
			s-19.3,43-43,43S298,165.6,298,141.9z M267.7,246.9v-12.1c0-1.4,1.2-2.6,2.6-2.6h53.1c4.1,0,7.5-3.4,7.5-7.5s-3.4-7.5-7.5-7.5
			h-30.8c0,0-0.1,0-0.1,0c-4.8,0-8.7-3.9-8.7-8.7s3.9-8.7,8.7-8.7h97c4.8,0,8.7,3.9,8.7,8.7s-3.9,8.7-8.7,8.7c0,0-0.1,0-0.1,0h-30.8
			c-4.1,0-7.5,3.4-7.5,7.5s3.4,7.5,7.5,7.5h53.1c1.4,0,2.6,1.2,2.6,2.6v12.1c0,1.4-1.2,2.6-2.6,2.6H270.3
			C268.9,249.5,267.7,248.4,267.7,246.9L267.7,246.9z M305.5,264.5h71.1l12.9,150.7h-96.8L305.5,264.5z M125.3,37.8
			c0-13.1,10.7-23.8,23.8-23.8c13.1,0,23.8,10.7,23.8,23.8s-10.7,23.8-23.8,23.8C136,61.6,125.3,50.9,125.3,37.8z M91.9,83.8
			c0-4,3.2-7.2,7.2-7.2H199c4,0,7.2,3.2,7.2,7.2c0,1.1-0.3,2.2-0.8,3.2l-16.6,33.2h-79.6L92.7,87.1C92.2,86.1,91.9,85,91.9,83.8z
			 M91.9,143.9c0-4.8,3.9-8.7,8.7-8.7h97c4.8,0,8.7,3.9,8.7,8.7s-3.9,8.7-8.7,8.7h-97C95.8,152.5,91.9,148.7,91.9,143.9z
			 M75.8,182.3v-12.1c0-1.4,1.2-2.6,2.6-2.6h141.4c1.4,0,2.6,1.2,2.6,2.6v12.1c0,1.4-1.2,2.6-2.6,2.6H78.4
			C76.9,184.9,75.8,183.7,75.8,182.3z M100.6,199.9h97c4.8,0,8.7,3.9,8.7,8.7s-3.9,8.7-8.7,8.7h-97c-4.8,0-8.7-3.9-8.7-8.7
			S95.8,199.9,100.6,199.9z M61.5,455.6c-3.2,0-5.9-2.6-5.9-5.9v-13.6c0-3.2,2.6-5.9,5.9-5.9h62.1c4.1,0,7.5-3.4,7.5-7.5
			s-3.4-7.5-7.5-7.5H82l18.4-55.2c5.1-15.2,7.6-31.1,7.6-47.1v-80.7h82v80.7c0,16,2.6,31.9,7.6,47.1l18.4,55.2h-57.3
			c-4.1,0-7.5,3.4-7.5,7.5s3.4,7.5,7.5,7.5h77.9c3.2,0,5.9,2.6,5.9,5.9v13.6c0,3.2-2.6,5.9-5.9,5.9c0,0-0.1,0-0.1,0L61.5,455.6
			C61.5,455.6,61.5,455.6,61.5,455.6z M265.1,496H33c-4.3,0-7.8-3.5-7.8-7.8v-9.9c0-4.3,3.5-7.8,7.8-7.8h232.1
			c4.3,0,7.8,3.5,7.8,7.8v9.9C272.9,492.5,269.4,496,265.1,496L265.1,496z M454.7,488.2c0,4.3-3.5,7.8-7.8,7.8H286.5
			c0.9-2.4,1.4-5,1.4-7.8v-9.9c0-2.7-0.5-5.3-1.4-7.8h75.9c4.1,0,7.5-3.4,7.5-7.5s-3.4-7.5-7.5-7.5l-98.9,0c-3.2,0-5.9-2.6-5.9-5.9
			v-13.6c0-3.3,2.6-5.9,5.9-5.9h155c3.2,0,5.9,2.6,5.9,5.9v13.6c0,3.2-2.6,5.8-5.8,5.9h-21c-4.1,0-7.5,3.4-7.5,7.5s3.4,7.5,7.5,7.5
			H447c4.3,0,7.8,3.5,7.8,7.8V488.2z"/>
	</g>
</g>
</svg>
