<?xml version="1.0" encoding="utf-8"?>
<!-- Generator: Adobe Illustrator 24.2.3, SVG Export Plug-In . SVG Version: 6.00 Build 0)  -->
<svg version="1.1" id="Layer_1" xmlns="http://www.w3.org/2000/svg" xmlns:xlink="http://www.w3.org/1999/xlink" x="0px" y="0px"
	 viewBox="0 0 512 512" style="enable-background:new 0 0 512 512;" xml:space="preserve">
<style type="text/css">
	.st0{fill:#FFFFFF;}
</style>
<path class="st0" d="M202.5,419.7L185,478H167v16h176v-16h-18l-5.5-18.3l-15.3,4.6l4.1,13.7H201.7l16.1-53.7L202.5,419.7z"/>
<path class="st0" d="M455,350h-10.3c11.8-60.7-21.3-121.1-78.7-144c-57.4-22.8-123-1.5-156,50.7s-24.2,120.6,21,162.7
	c45.2,42.1,114,46.1,163.8,9.5l57.7,57.7c7.1,7.1,17.9,9.3,27.2,5.4c9.3-3.9,15.4-13,15.4-23.1c0-6.6-2.6-13-7.3-17.7l-59-59l-1,1
	c5.4-8.6,9.7-17.8,12.9-27.4H479v16c0,8.8-7.2,16-16,16v16c17.7,0,32-14.3,32-32V110c0-17.7-14.3-32-32-32v16c8.8,0,16,7.2,16,16
	v240H455z M476.4,462.7c2.6,2.6,3.3,6.4,1.9,9.8c-1.4,3.4-4.7,5.5-8.3,5.5c-2.4,0-4.7-1-6.3-2.6L407,418.7
	c4.4-4.1,8.4-8.5,12.2-13.2L476.4,462.7z M319,438c-61.9,0-112-50.1-112-112s50.1-112,112-112s112,50.1,112,112
	C430.9,387.8,380.8,438,319,438z"/>
<path class="st0" d="M47,414h136v-16H47c-8.8,0-16-7.2-16-16v-16h144v-16H31V110c0-8.8,7.2-16,16-16V78c-17.7,0-32,14.3-32,32v272
	C15,399.7,29.3,414,47,414z"/>
<path class="st0" d="M79,46c0-8.8,7.2-16,16-16h256v32h-64c-2.1,0-4.2,0.8-5.7,2.3l-160,160c-3.1,3.1-3.1,8.2,0,11.3l48,48
	l11.3-11.3L138.3,230l152-152h61.5c2.6,12.7,11.3,23.4,23.2,28.6v56.1l-21.7,21.7l11.3,11.3l24-24c1.5-1.5,2.3-3.5,2.3-5.7v-56h40
	v128h16V102c0-0.2-0.1-0.3-0.1-0.5c0-0.7-0.2-1.4-0.4-2.1c-0.1-0.3-0.2-0.5-0.3-0.7c-0.4-0.9-0.9-1.7-1.6-2.3l-80-80
	c-0.7-0.7-1.5-1.2-2.3-1.6c-0.3-0.1-0.5-0.2-0.8-0.3c-0.6-0.2-1.3-0.4-2-0.4c-0.2,0-0.3-0.1-0.5-0.1H95c-17.7,0-32,14.3-32,32v288
	h16V46z M419.7,94H391c-13.3,0-24-10.7-24-24V41.3L419.7,94z"/>
<path class="st0" d="M95,46h16v16H95V46z"/>
<path class="st0" d="M127,46h16v16h-16V46z"/>
<path class="st0" d="M159,46h16v16h-16V46z"/>
<path class="st0" d="M359,110c0,8.8-7.2,16-16,16s-16-7.2-16-16s7.2-16,16-16S359,101.2,359,110z"/>
<path class="st0" d="M169.3,227.7l11.3-11.3l24,24l-11.3,11.3L169.3,227.7z"/>
<path class="st0" d="M193.3,203.7l11.3-11.3l24,24l-11.3,11.3L193.3,203.7z"/>
<path class="st0" d="M304.2,148.8l7,34.8l15.7-3.1l-8-40c-0.6-3.2-3.1-5.6-6.3-6.3l-40-8c-2.6-0.5-5.3,0.3-7.2,2.2l-24,24
	c-1.9,1.9-2.7,4.6-2.2,7.2l8,40l15.7-3.1l-7.1-35.8l17.9-18L304.2,148.8z"/>
<path class="st0" d="M95,94h80v16H95V94z"/>
<path class="st0" d="M95,126h80v16H95V126z"/>
<path class="st0" d="M95,158h48v16H95V158z"/>
<path class="st0" d="M95,286h56v16H95V286z"/>
<path class="st0" d="M95,318h80v16H95V318z"/>
<path class="st0" d="M415,326c0-53-43-96-96-96s-96,43-96,96s43,96,96,96S415,379,415,326z M287,326c0-17.7,14.3-32,32-32
	c17.7,0,32,14.3,32,32s-14.3,32-32,32C301.3,358,287,343.7,287,326z M277.7,350.3c-13.7-5.3-26.1-13.6-36.2-24.3
	c10.1-10.8,22.4-19.1,36.2-24.3C268.8,316.7,268.8,335.4,277.7,350.3z M360.3,301.7c13.7,5.3,26.1,13.6,36.2,24.3
	c-10.1,10.8-22.4,19.1-36.2,24.3C369.2,335.4,369.2,316.7,360.3,301.7z M319,246c35.6,0,66.9,23.6,76.8,57.7
	c-20.6-15.9-45.8-24.9-71.8-25.5c-3.3-0.3-6.6-0.3-9.9,0c-26.1,0.6-51.2,9.5-71.9,25.5C252.1,269.6,283.4,246.1,319,246z M319,406
	c-35.6,0-66.9-23.6-76.8-57.7c20.6,15.9,45.8,24.9,71.8,25.5c3.3,0.3,6.6,0.3,9.9,0c26.1-0.6,51.2-9.5,71.9-25.5
	C385.9,382.5,354.6,406,319,406z"/>
<path class="st0" d="M335,326c0,8.8-7.2,16-16,16s-16-7.2-16-16s7.2-16,16-16S335,317.2,335,326z"/>
</svg>
