<?xml version="1.0" encoding="utf-8"?>
<!-- Generator: Adobe Illustrator 24.2.3, SVG Export Plug-In . SVG Version: 6.00 Build 0)  -->
<svg version="1.1" id="Capa_1" xmlns="http://www.w3.org/2000/svg" xmlns:xlink="http://www.w3.org/1999/xlink" x="0px" y="0px"
	 viewBox="0 0 512 480" style="enable-background:new 0 0 512 480;" xml:space="preserve">
<style type="text/css">
	.st0{fill:#FFFFFF;}
</style>
<g id="Page-1">
	<g id="_x30_40---Browser-Survey">
		<path id="Shape" class="st0" d="M450,0H50C27.9,0,10,17.9,10,40v400c0,22.1,17.9,40,40,40h400c22.1,0,40-17.9,40-40V40
			C490,17.9,472.1,0,450,0z M50,16h400c13.2,0,24,10.8,24,24v56H26V40C26,26.8,36.8,16,50,16z M450,464H50c-13.2,0-24-10.8-24-24
			V112h448v328C474,453.2,463.2,464,450,464z"/>
		<path id="Shape_1_" class="st0" d="M66,80c13.3,0,24-10.7,24-24S79.3,32,66,32S42,42.7,42,56C42,69.2,52.8,80,66,80z M66,48
			c4.4,0,8,3.6,8,8s-3.6,8-8,8s-8-3.6-8-8C58,51.6,61.6,48,66,48z"/>
		<path id="Shape_2_" class="st0" d="M130,80c13.3,0,24-10.7,24-24s-10.7-24-24-24s-24,10.7-24,24C106,69.2,116.8,80,130,80z
			 M130,48c4.4,0,8,3.6,8,8s-3.6,8-8,8s-8-3.6-8-8C122,51.6,125.6,48,130,48z"/>
		<path id="Shape_3_" class="st0" d="M194,80c13.3,0,24-10.7,24-24s-10.7-24-24-24s-24,10.7-24,24C170,69.2,180.8,80,194,80z
			 M194,48c4.4,0,8,3.6,8,8s-3.6,8-8,8s-8-3.6-8-8C186,51.6,189.6,48,194,48z"/>
		<path id="Shape_4_" class="st0" d="M330,264h64c8.8,0,16-7.2,16-16v-64c0-8.8-7.2-16-16-16h-64c-8.8,0-16,7.2-16,16v64
			C314,256.8,321.2,264,330,264z M330,184h64v64h-64V184z"/>
		<path id="Shape_5_" class="st0" d="M402,368c-4.4,0-8,3.6-8,8v16h-64v-64h40c4.4,0,8-3.6,8-8s-3.6-8-8-8h-40c-8.8,0-16,7.2-16,16
			v64c0,8.8,7.2,16,16,16h64c8.8,0,16-7.2,16-16v-16C410,371.6,406.4,368,402,368z"/>
		<path id="Shape_6_" class="st0" d="M82,192h64c4.4,0,8-3.6,8-8s-3.6-8-8-8H82c-4.4,0-8,3.6-8,8S77.6,192,82,192z"/>
		<path id="Shape_7_" class="st0" d="M274,176h-96c-4.4,0-8,3.6-8,8s3.6,8,8,8h96c4.4,0,8-3.6,8-8S278.4,176,274,176z"/>
		<path id="Shape_8_" class="st0" d="M274,208H82c-4.4,0-8,3.6-8,8s3.6,8,8,8h192c4.4,0,8-3.6,8-8S278.4,208,274,208z"/>
		<path id="Shape_9_" class="st0" d="M82,256h96c4.4,0,8-3.6,8-8s-3.6-8-8-8H82c-4.4,0-8,3.6-8,8S77.6,256,82,256z"/>
		<path id="Shape_10_" class="st0" d="M274,240h-64c-4.4,0-8,3.6-8,8s3.6,8,8,8h64c4.4,0,8-3.6,8-8S278.4,240,274,240z"/>
		<path id="Shape_11_" class="st0" d="M82,336h64c4.4,0,8-3.6,8-8s-3.6-8-8-8H82c-4.4,0-8,3.6-8,8S77.6,336,82,336z"/>
		<path id="Shape_12_" class="st0" d="M274,320h-96c-4.4,0-8,3.6-8,8s3.6,8,8,8h96c4.4,0,8-3.6,8-8S278.4,320,274,320z"/>
		<path id="Shape_13_" class="st0" d="M274,352H82c-4.4,0-8,3.6-8,8s3.6,8,8,8h192c4.4,0,8-3.6,8-8S278.4,352,274,352z"/>
		<path id="Shape_14_" class="st0" d="M178,384H82c-4.4,0-8,3.6-8,8s3.6,8,8,8h96c4.4,0,8-3.6,8-8S182.4,384,178,384z"/>
		<path id="Shape_15_" class="st0" d="M274,384h-64c-4.4,0-8,3.6-8,8s3.6,8,8,8h64c4.4,0,8-3.6,8-8S278.4,384,274,384z"/>
		<path id="Shape_16_" class="st0" d="M411.6,299.2l-42.5,56.6l-9.5-9.5c-3.1-3-8.1-3-11.2,0.1s-3.1,8.1-0.1,11.2l16,16
			c1.5,1.5,3.5,2.3,5.7,2.3c0.2,0,0.4,0,0.6,0c2.3-0.2,4.4-1.3,5.8-3.2l48-64c2.7-3.5,1.9-8.5-1.6-11.2S414.3,295.7,411.6,299.2
			L411.6,299.2z"/>
	</g>
</g>
</svg>
