<?xml version="1.0" encoding="utf-8"?>
<!-- Generator: Adobe Illustrator 24.2.3, SVG Export Plug-In . SVG Version: 6.00 Build 0)  -->
<svg version="1.1" id="Layer_1" xmlns="http://www.w3.org/2000/svg" xmlns:xlink="http://www.w3.org/1999/xlink" x="0px" y="0px"
	 viewBox="0 0 48.7 43" style="enable-background:new 0 0 48.7 43;" xml:space="preserve">
<style type="text/css">
	.st0{fill:#FFFFFF;}
</style>
<g>
	<g>
		<path class="st0" d="M42.8,0.8H5.9C3.2,0.8,1,3,1,5.7v20.2v3.1C1,31.8,3.2,34,5.9,34h11.9l-1.4,7.2h-4.7c-0.5,0-0.9,0.4-0.9,0.9
			c0,0.5,0.4,0.9,0.9,0.9h25.2c0.5,0,0.9-0.4,0.9-0.9c0-0.5-0.4-0.9-0.9-0.9h-4.7L30.8,34h11.9c2.7,0,4.9-2.2,4.9-4.9v-3.1V5.7
			C47.7,3,45.5,0.8,42.8,0.8z M18.3,41.2l1.4-7.2H29l1.4,7.2L18.3,41.2L18.3,41.2z M45.9,29.1c0,1.7-1.4,3.1-3.1,3.1H5.9
			c-1.7,0-3.1-1.4-3.1-3.1v-2.2h43.1L45.9,29.1L45.9,29.1z M45.9,25H2.8v-1.8h5.4c0.5,0,0.9-0.4,0.9-0.9s-0.4-0.9-0.9-0.9H2.8V5.7
			c0-1.7,1.4-3.1,3.1-3.1h36.8c1.7,0,3.1,1.4,3.1,3.1L45.9,25L45.9,25z"/>
	</g>
</g>
<g>
	<g>
		<path class="st0" d="M24.4,27.7c-1,0-1.8,0.8-1.8,1.8s0.8,1.8,1.8,1.8s1.8-0.8,1.8-1.8S25.3,27.7,24.4,27.7z"/>
	</g>
</g>
<g>
	<g>
		<path class="st0" d="M31.7,18l-1.9-1.9l1.6-1.6c0.2-0.2,0.3-0.6,0.2-0.9C31.5,13.3,31.3,13,31,13l-8.3-1.9c-0.3-0.1-0.6,0-0.8,0.2
			c-0.2,0.2-0.3,0.5-0.2,0.8l1.9,8.3c0.1,0.3,0.3,0.6,0.6,0.7c0.3,0.1,0.7,0,0.9-0.2l1.6-1.6l1.9,1.9c0.2,0.2,0.4,0.3,0.6,0.3
			s0.5-0.1,0.6-0.3l1.9-1.9C32.1,18.9,32.1,18.3,31.7,18z M29.2,19.2l-1.9-1.9c-0.2-0.2-0.4-0.3-0.6-0.3c-0.2,0-0.5,0.1-0.6,0.3
			l-1.1,1.1l-1.2-5.3l5.3,1.2l-1.1,1.1c-0.4,0.4-0.4,0.9,0,1.3l1.9,1.9L29.2,19.2z"/>
	</g>
</g>
<g>
	<g>
		<path class="st0" d="M20.7,8.8l-0.9-0.9c-0.4-0.4-0.9-0.4-1.3,0c-0.4,0.4-0.4,0.9,0,1.3l0.9,0.9c0.2,0.2,0.4,0.3,0.6,0.3
			c0.2,0,0.5-0.1,0.6-0.3C21,9.7,21,9.2,20.7,8.8z"/>
	</g>
</g>
<g>
	<g>
		<path class="st0" d="M18.9,11.3h-1.3c-0.5,0-0.9,0.4-0.9,0.9c0,0.5,0.4,0.9,0.9,0.9h1.3c0.5,0,0.9-0.4,0.9-0.9
			C19.8,11.7,19.4,11.3,18.9,11.3z"/>
	</g>
</g>
<g>
	<g>
		<path class="st0" d="M20.7,14.2c-0.4-0.4-0.9-0.4-1.3,0l-0.9,0.9c-0.4,0.4-0.4,0.9,0,1.3c0.2,0.2,0.4,0.3,0.6,0.3
			c0.2,0,0.5-0.1,0.6-0.3l0.9-0.9C21,15.1,21,14.6,20.7,14.2z"/>
	</g>
</g>
<g>
	<g>
		<path class="st0" d="M26.9,7.9c-0.4-0.4-0.9-0.4-1.3,0l-0.9,0.9c-0.4,0.4-0.4,0.9,0,1.3c0.2,0.2,0.4,0.3,0.6,0.3s0.5-0.1,0.6-0.3
			l0.9-0.9C27.3,8.8,27.3,8.3,26.9,7.9z"/>
	</g>
</g>
<g>
	<g>
		<path class="st0" d="M22.7,6.2c-0.5,0-0.9,0.4-0.9,0.9v1.3c0,0.5,0.4,0.9,0.9,0.9s0.9-0.4,0.9-0.9V7.1C23.6,6.6,23.2,6.2,22.7,6.2
			z"/>
	</g>
</g>
<g>
	<g>
		<path class="st0" d="M11.8,22.2c0-0.1,0-0.1-0.1-0.2c0-0.1-0.1-0.1-0.1-0.2c0,0-0.1-0.1-0.1-0.1c0,0-0.1-0.1-0.1-0.1
			c0,0-0.1-0.1-0.2-0.1c-0.1,0-0.1,0-0.2-0.1c-0.1,0-0.2,0-0.4,0c-0.1,0-0.1,0-0.2,0.1c-0.1,0-0.1,0.1-0.2,0.1c0,0-0.1,0.1-0.1,0.1
			c0,0-0.1,0.1-0.1,0.1c0,0-0.1,0.1-0.1,0.2c0,0.1,0,0.1-0.1,0.2c0,0.1,0,0.1,0,0.2s0,0.1,0,0.2c0,0.1,0,0.1,0.1,0.2
			c0,0.1,0.1,0.1,0.1,0.2c0,0,0.1,0.1,0.1,0.1s0.1,0.1,0.1,0.1c0,0,0.1,0.1,0.2,0.1c0.1,0,0.1,0,0.2,0.1c0.1,0,0.1,0,0.2,0
			c0.1,0,0.1,0,0.2,0c0.1,0,0.1,0,0.2-0.1c0.1,0,0.1-0.1,0.2-0.1c0,0,0.1-0.1,0.1-0.1c0,0,0.1-0.1,0.1-0.1c0,0,0.1-0.1,0.1-0.2
			c0-0.1,0-0.1,0.1-0.2c0-0.1,0-0.1,0-0.2S11.8,22.2,11.8,22.2z"/>
	</g>
</g>
</svg>
