<?xml version="1.0" encoding="utf-8"?>
<!-- Generator: Adobe Illustrator 24.2.3, SVG Export Plug-In . SVG Version: 6.00 Build 0)  -->
<svg version="1.1" id="Layer_1" xmlns="http://www.w3.org/2000/svg" xmlns:xlink="http://www.w3.org/1999/xlink" x="0px" y="0px"
	 viewBox="0 0 46 46" style="enable-background:new 0 0 46 46;" xml:space="preserve">
<style type="text/css">
	.st0{fill:#FFFFFF;}
</style>
<g id="Outline">
	<path class="st0" d="M14,5.2h3.6l0.5,1c0.1,0.2,0.3,0.4,0.6,0.4h6.7c0.3,0,0.5-0.1,0.6-0.4l0.5-1H30c0.9,0,1.7,0.6,1.9,1.5l1.3-0.3
		c-0.4-1.5-1.7-2.5-3.2-2.5H14c-1.5,0-2.8,1-3.2,2.5l1.3,0.3C12.3,5.8,13.1,5.1,14,5.2z"/>
	<path class="st0" d="M14,27.8c0.4,0,0.7-0.3,0.7-0.7v-3.3h4c1.8,0,3.3-1.5,3.3-3.3v-9.3c0-1.8-1.5-3.3-3.3-3.3H5.3
		C3.5,7.8,2,9.3,2,11.2v9.3c0,1.8,1.5,3.3,3.3,3.3h3.1l5.2,3.9C13.7,27.8,13.9,27.8,14,27.8z M13.3,23.2v2.7l-4.3-3.2
		c-0.1-0.1-0.3-0.1-0.4-0.1H5.3c-1.1,0-2-0.9-2-2v-9.3c0-1.1,0.9-2,2-2h13.3c1.1,0,2,0.9,2,2v9.3c0,1.1-0.9,2-2,2H14
		C13.6,22.5,13.3,22.8,13.3,23.2z"/>
	<path class="st0" d="M38.7,7.8h-10c-1.8,0-3.3,1.5-3.3,3.3v8c0,1.8,1.5,3.3,3.3,3.3H30v2.7c0,0.4,0.3,0.7,0.7,0.7
		c0.1,0,0.3,0,0.4-0.1l4.5-3.2h3.1c1.8,0,3.3-1.5,3.3-3.3v-8C42,9.3,40.5,7.8,38.7,7.8z M40.7,19.2c0,1.1-0.9,2-2,2h-3.3
		c-0.1,0-0.3,0-0.4,0.1l-3.6,2.6v-2c0-0.4-0.3-0.7-0.7-0.7h-2c-1.1,0-2-0.9-2-2v-8c0-1.1,0.9-2,2-2h10c1.1,0,2,0.9,2,2V19.2z"/>
	<path class="st0" d="M37.3,13.2h-2v-0.7c0-1.1-0.9-2-2-2H32c-0.4,0-0.7,0.3-0.7,0.7v2h-2.7c-0.4,0-0.7,0.3-0.7,0.7v5.3
		c0,0.4,0.3,0.7,0.7,0.7h8.7c1.1,0,2-0.9,2-2v-2.7C39.3,14,38.4,13.2,37.3,13.2z M29.3,14.5h2v4h-2V14.5z M38,17.8
		c0,0.4-0.3,0.7-0.7,0.7h-4.7v-6.7h0.7c0.4,0,0.7,0.3,0.7,0.7v1.3c0,0.4,0.3,0.7,0.7,0.7h2.7c0.4,0,0.7,0.3,0.7,0.7V17.8z"/>
	<path class="st0" d="M17.1,15.8l1.8-0.7c0.3-0.1,0.5-0.5,0.4-0.9c-0.1-0.2-0.2-0.3-0.4-0.4l-1.7-0.7c-0.4-1.9-2.3-3.1-4.2-2.6
		c-0.6,0.1-1.2,0.5-1.7,0.9l-1,1H5.3c-0.4,0-0.7,0.3-0.7,0.7v0.7c0,0.5,0.1,1,0.4,1.4c-0.2,0.1-0.4,0.3-0.4,0.6v0.7
		c0,1.1,0.6,2,1.6,2.4l-0.8,1.2c-0.2,0.3-0.1,0.7,0.2,0.9c0.1,0.1,0.2,0.1,0.4,0.1h4.2C13.4,21.1,16.3,19,17.1,15.8z M10.2,19.8H7.3
		l0.6-1c0.2-0.3,0.1-0.7-0.2-0.9c-0.1-0.1-0.2-0.1-0.4-0.1c-0.7,0-1.3-0.6-1.3-1.3h1.3c0.4,0,0.7-0.3,0.7-0.7s-0.3-0.7-0.7-0.7
		c-0.7,0-1.3-0.6-1.3-1.3h4.7c0.2,0,0.3-0.1,0.5-0.2l1.2-1.2c0.8-0.8,2.2-0.8,3.1,0c0.4,0.4,0.6,1,0.6,1.5
		C16,17.2,13.4,19.8,10.2,19.8z"/>
	<rect x="13.3" y="13.2" class="st0" width="1.3" height="1.3"/>
	<rect x="23.1" y="27" transform="matrix(0.7133 -0.7009 0.7009 0.7133 -12.5698 24.6281)" class="st0" width="1.4" height="1.3"/>
	
		<rect x="19.9" y="29.5" transform="matrix(0.7133 -0.7009 0.7009 0.7133 -15.0469 23.5638)" class="st0" width="2.8" height="1.3"/>
	<path class="st0" d="M33.2,25.4c-0.2-0.3-0.6-0.3-0.9-0.1c-0.2,0.1-0.3,0.3-0.3,0.5v5.1l-2.2-2.2c-0.4-0.4-1-0.7-1.6-0.8l-2.5-5.7
		c-0.1-0.3-0.5-0.5-0.9-0.3c-0.1,0-0.1,0.1-0.2,0.1l-7.9,7.8l-2.6,0.1c-0.4,0-0.7,0.3-0.7,0.7c0,0.1,0,0.2,0.1,0.3l2.4,5.6
		c0.1,0.3,0.5,0.5,0.9,0.3c0.1,0,0.1-0.1,0.2-0.1l1.9-1.8l7.9-0.5l1.7,1.7c-1,2.1-0.9,4.6,0.3,6.5H14c-1.1,0-2-0.9-2-2V27.8h-1.3
		v12.7c0,1.8,1.5,3.3,3.3,3.3h16.7v-0.7c0-0.1,0-0.3-0.1-0.4L30.1,42c-1.2-1.8-1.2-4-0.1-5.9c0.2-0.3,0.1-0.6-0.1-0.8L26.5,32
		c-0.7-0.7-0.7-1.7,0-2.4s1.7-0.7,2.4,0l0,0l5.3,5.3l0.9-0.9l-1.8-1.8v-4.5l3,3.7c0.7,0.8,1,1.9,1,2.9v9.5h1.3v-9.5
		c0-1.4-0.5-2.7-1.3-3.7L33.2,25.4z M24.7,30.8c0,0.8,0.3,1.6,0.9,2.1l0,0l-7,0.4c-0.2,0-0.3,0.1-0.4,0.2l-1.3,1.3l-1.7-3.8l1.8,0
		c0.2,0,0.3-0.1,0.5-0.2l7.4-7.3l1.9,4.4C25.6,28.3,24.7,29.5,24.7,30.8z"/>
	<rect x="14.7" y="38.5" class="st0" width="4.7" height="1.3"/>
	<rect x="21.3" y="38.5" class="st0" width="4.7" height="1.3"/>
</g>
</svg>
