<?xml version="1.0" encoding="utf-8"?>
<!-- Generator: Adobe Illustrator 24.2.3, SVG Export Plug-In . SVG Version: 6.00 Build 0)  -->
<svg version="1.1" id="Layer_1" xmlns="http://www.w3.org/2000/svg" xmlns:xlink="http://www.w3.org/1999/xlink" x="0px" y="0px"
	 viewBox="0 0 518 518" style="enable-background:new 0 0 518 518;" xml:space="preserve">
<style type="text/css">
	.st0{fill:#FFFFFF;}
</style>
<g>
	<path class="st0" d="M503.6,247.6h-68.7l74.3-74.3c3.1-3.1,3.1-8.2,0-11.3l-152-152c-3.1-3.1-8.2-3.1-11.3,0L108.3,247.6H23.6
		c-4.4,0-8,3.6-8,8v208c0,4.4,3.6,8,8,8h116.7l29.7,29.7c1.6,1.6,3.6,2.3,5.7,2.3s4.1-0.8,5.7-2.3l29.7-29.7h292.7c4.4,0,8-3.6,8-8
		v-208C511.6,251.2,508,247.6,503.6,247.6z M351.6,26.9l140.7,140.7l-80,80h-61.1c-1.8-20.5-10.7-39.5-25.4-54.2
		c-34.3-34.3-90.1-34.3-124.5,0c-14.7,14.7-23.5,33.7-25.4,54.2h-45.1L351.6,26.9z M225.4,247.6c-1.1-5.2,0.4-10.8,4.2-14.6
		l14.6,14.6H225.4z M311.7,247.6c-0.9-1.2-1.8-2.3-2.9-3.3c-12.5-12.5-32.8-12.5-45.3,0L241,221.7c6-6,16.6-6,22.6,0l11.3-11.3
		c-6-6-14.1-9.4-22.6-9.4c-8.5,0-16.6,3.3-22.6,9.4l0,0l-5.7-5.7L212.7,216l5.7,5.7c-7,7-10.1,16.6-9.1,25.9h-17.1
		c1.8-16.2,8.9-31.2,20.6-42.9c28.1-28.1,73.8-28.1,101.8,0c11.7,11.7,18.8,26.7,20.6,42.9L311.7,247.6L311.7,247.6z M175.6,484.3
		l-12.7-12.7h25.4L175.6,484.3z M495.6,455.6h-464v-192h464V455.6z"/>
	<path class="st0" d="M239.6,383.6h-16c0,17.6,14.4,32,32,32v8h16v-8c17.6,0,32-14.4,32-32s-14.4-32-32-32v-32c8.8,0,16,7.2,16,16
		h16c0-17.6-14.4-32-32-32v-8h-16v8c-17.6,0-32,14.4-32,32s14.4,32,32,32v32C246.8,399.6,239.6,392.4,239.6,383.6z M239.6,335.6
		c0-8.8,7.2-16,16-16v32C246.8,351.6,239.6,344.4,239.6,335.6z M271.6,367.6c8.8,0,16,7.2,16,16s-7.2,16-16,16V367.6z"/>
	<path class="st0" d="M263.6,447.6c48.5,0,88-39.5,88-88s-39.5-88-88-88s-88,39.5-88,88S215.1,447.6,263.6,447.6z M263.6,287.6
		c39.7,0,72,32.3,72,72s-32.3,72-72,72s-72-32.3-72-72S223.9,287.6,263.6,287.6z"/>
	<path class="st0" d="M479.6,431.6v-144c0-4.4-3.6-8-8-8h-96v16h88v128h-88v16h96C476,439.6,479.6,436,479.6,431.6z"/>
	<path class="st0" d="M55.6,439.6h96v-16h-88v-128h88v-16h-96c-4.4,0-8,3.6-8,8v144C47.6,436,51.2,439.6,55.6,439.6z"/>
	<path class="st0" d="M375.6,391.6h16v16h-16V391.6z"/>
	<path class="st0" d="M407.6,391.6h16v16h-16V391.6z"/>
	<path class="st0" d="M375.6,311.6h16v16h-16V311.6z"/>
	<path class="st0" d="M407.6,311.6h16v16h-16V311.6z"/>
	<path class="st0" d="M353.8,74.9l90.5,90.5l-62.2,62.2l11.3,11.3l67.9-67.9c3.1-3.1,3.1-8.2,0-11.3L359.4,58c-3-3-8.3-3-11.3,0
		l-67.9,67.9l11.3,11.3L353.8,74.9z"/>
	<path class="st0" d="M359.4,205l11.3-11.3L382,205l-11.3,11.3L359.4,205z"/>
	<path class="st0" d="M382,182.4l11.3-11.3l11.3,11.3l-11.3,11.3L382,182.4z"/>
	<path class="st0" d="M302.8,148.5l11.3-11.3l11.3,11.3l-11.3,11.3L302.8,148.5z"/>
	<path class="st0" d="M325.4,125.9l11.3-11.3l11.3,11.3l-11.3,11.3L325.4,125.9z"/>
	<path class="st0" d="M103.6,311.6h16v16h-16V311.6z"/>
	<path class="st0" d="M135.6,311.6h16v16h-16V311.6z"/>
	<path class="st0" d="M103.6,391.6h16v16h-16V391.6z"/>
	<path class="st0" d="M135.6,391.6h16v16h-16V391.6z"/>
</g>
</svg>
